<?xml version="1.0" encoding="UTF-8"?>
<svg width="47px" height="51px" viewBox="0 0 47 51" version="1.1" xmlns="http://www.w3.org/2000/svg" xmlns:xlink="http://www.w3.org/1999/xlink">
    <title>arden-logo-2</title>
    <g id="arden-logo-2" stroke="none" stroke-width="1" fill="none" fill-rule="evenodd">
        <g transform="translate(0.000000, 2.000000)" fill="#66C9BA" fill-rule="nonzero">
            <path d="M35.2823349,3.3359271 C35.6747969,3.76763532 36.4204747,4.48387849 37.2838911,4.59180554 C37.3623835,4.58199399 37.3820066,4.63105174 37.1661525,4.73897879 C37.0386024,4.80765965 36.8423714,4.8959636 36.7050097,4.974456 C36.6265173,5.0333253 36.675575,5.0725715 36.7540674,5.13144081 C36.9306753,5.24917941 37.1465294,5.33748336 37.3231373,5.29823716 C37.4310644,5.27861406 37.5389914,5.27861406 37.6469185,5.28842561 C37.7155994,5.30804871 37.7842802,5.29823716 37.8431495,5.27861406 C37.9903228,5.19031011 37.8627726,4.9548329 37.941265,4.8174712 C37.9608881,4.76841345 38.1669307,4.74879035 38.2159884,4.58199399 C38.2650462,4.39557453 38.2454231,4.34651678 38.333727,4.18953198 C38.4612772,3.96386632 38.6575082,3.78725842 38.8341161,3.59102741 C39.0695933,3.32611555 39.295259,3.14950765 39.5405477,2.79629184 C39.6190401,2.67855323 39.9820675,2.10948331 39.9035751,2.04080246 C39.8545173,2.04080246 39.5111131,2.43326447 39.4326207,2.55100308 L39.1775203,2.84534959 C38.8635507,3.1985654 38.5593927,3.55178121 38.2159884,3.86575082 C37.8725842,4.17972043 37.4801221,4.06198182 37.1072832,3.93443167 C36.5578364,3.73820066 36.0182012,3.51253501 35.4687543,3.30649245 C35.4491312,3.2966809 35.1645963,3.1396961 35.1155385,3.1593192 C35.0959154,3.1593192 35.1940309,3.24762315 35.2823349,3.3359271" id="Path"></path>
            <path d="M41.2085113,7.08393932 C41.2771921,7.13299707 41.0417149,7.29979342 40.8945416,7.37828583 C40.8945416,7.37828583 40.7669915,7.41753203 40.7571799,7.49602443 C40.7473684,7.59413993 41.0711496,7.65300923 41.2281344,7.67263233 C41.3654961,7.69225543 41.5028578,7.69225543 41.6402195,7.67263233 C41.6696541,7.65300923 41.6892772,7.61376303 41.6794657,7.58432838 C41.6402195,7.22130102 41.7677696,7.25073567 41.7677696,7.25073567 C41.7677696,7.25073567 42.1209854,7.29979342 42.2485356,7.21148947 C42.3074049,7.18205482 42.3760857,7.18205482 42.434955,7.20167792 C42.5036359,7.22130102 42.5428821,7.24092412 42.4742012,7.14280862 C42.434955,7.09375087 42.4251435,7.02507001 42.4643897,6.97601226 C43.1217636,6.00466878 43.1413867,5.34729491 42.9353441,4.80765965 C42.915721,4.71935569 42.7783593,5.08238306 42.71949,5.21974476 C42.6802438,5.30804871 42.5330705,5.66126452 42.5134474,5.70051072 C42.3074049,6.12240739 42.2779702,6.19108824 42.0032468,6.54430405 C41.846262,6.75034661 41.738335,6.73072351 41.542104,6.54430405 C40.953411,5.98504568 40.776803,5.41597577 40.3549064,4.80765965 C40.3450948,4.78803655 40.3352833,4.78803655 40.3156602,4.78803655 C40.2567909,4.78803655 40.2077331,4.9940791 40.2273562,5.10200616 C40.4235872,6.24995754 40.5118912,6.58355025 41.2085113,7.08393932" id="Path"></path>
            <path d="M42.3858973,16.6109547 C42.1209854,16.7973741 41.7873927,16.9347358 41.4734231,17.0720975 C41.4734231,17.0720975 41.1300189,17.2388939 40.9828456,17.3271978 C40.8356723,17.4155018 40.7473684,17.1898361 40.7375568,17.1604015 C40.7375568,17.1604015 40.7375568,17.1505899 40.7277453,17.1505899 C40.5020796,16.866055 40.2469793,16.5913316 40.0703714,16.2675504 C39.9231982,15.9830154 39.6779094,15.9241461 39.4522438,15.9241461 C39.403186,15.9241461 39.3443167,15.9241461 39.3050705,15.9339577 C38.7163775,15.992827 38.1276845,16.1498118 37.548803,16.2773619 C37.4506875,16.296985 36.5872711,16.4441583 36.6461404,16.5226507 C36.6657635,16.5520854 36.8227483,16.5913316 37.0189793,16.6207662 C37.068037,16.6305778 37.1269063,16.6305778 37.1759641,16.6207662 L37.745034,16.5226507 C37.745034,16.5226507 37.833338,16.5520854 37.7254109,16.5913316 C37.7254109,16.5913316 37.5684261,16.6403893 37.8137149,16.7483164 C38.333727,16.973982 38.4710887,16.9837936 39.0794048,17.1898361 C39.1677088,17.2192708 39.3148821,17.2094592 39.3443167,17.3173863 C39.3835629,17.4449364 39.4816784,17.4351249 39.5307362,17.4939942 C39.599417,17.5724866 39.6092286,17.5822981 39.6288517,17.6706021 C39.6386632,17.7294714 39.6779094,17.7785291 39.7367787,17.8079638 C39.8152711,17.8275869 39.8152711,17.9158908 39.8545173,17.9649486 C39.991879,18.1709912 40.1096176,18.3966568 40.2862255,18.6811918 C40.2960371,18.7008149 40.2862255,18.720438 40.276414,18.7302495 L40.2469793,18.7596842 C40.0311252,18.9755383 39.8054596,19.1717693 39.5601708,19.3483772 C39.4228091,19.4563042 39.3246936,19.5544197 39.3345052,19.613289 C39.3443167,19.6721584 39.5307362,19.7702739 39.7367787,19.8193316 C39.7564018,19.8193316 39.7760249,19.8193316 39.7858365,19.7997085 L40.1488638,19.3287541 L39.8643289,19.789897 C39.8545173,19.8095201 39.8545173,19.8389547 39.8741404,19.8487663 C39.8741404,19.8487663 39.883952,19.8585778 39.8937635,19.8585778 C39.9722559,19.8683894 40.0507483,19.8880125 40.1194292,19.897824 C40.1782985,19.897824 40.2371678,19.897824 40.2862255,19.8782009 C40.3156602,19.8683894 40.3549064,19.8585778 40.3941526,19.8487663 C40.4824565,19.8487663 40.5315143,19.9272587 40.5707605,19.9370702 C40.6198182,19.9468818 40.6786875,19.9370702 40.7179337,19.897824 C40.7473684,19.8782009 40.7964261,19.8487663 40.953411,19.8683894 C40.9828456,19.8683894 40.953411,20.0057511 41.061338,20.0057511 C41.257569,20.0155626 41.2771921,19.986128 41.2870037,19.9566933 C41.2870037,19.7800854 41.2673806,19.613289 41.2281344,19.4366811 C41.1692651,19.1717693 41.1692651,19.1030884 41.1103958,18.9068574 C41.1005842,18.8577997 41.0417149,18.7694957 41.1790766,18.7400611 L41.3949307,18.6419456 C41.5126693,18.6026994 41.6107848,18.5143954 41.6598426,18.3966568 C41.7285234,18.3377875 41.7972043,18.2789182 41.8658851,18.2298605 C42.0228699,18.1219334 42.1994778,18.0238179 42.3760857,17.9453255 C42.5821283,17.8668331 42.8666633,17.7000367 43.111952,17.7196598 C43.6319642,17.7490945 43.8183836,17.7883407 44.1715994,17.7981522 C44.1715994,17.7981522 44.4070767,17.8373984 44.2010341,17.7098483 L43.7595143,17.4449364 L44.8682195,17.8864562 C45.1821891,17.9649486 45.5648396,18.0532526 45.6040858,18.0140064 C45.6923897,17.9355139 44.9270888,17.5724866 44.8387849,17.5234288 C44.3285843,17.2290823 43.7398912,16.8464319 43.2100675,16.6109547 C42.9942134,16.4932161 42.6802438,16.3951006 42.3858973,16.6109547" id="Path"></path>
            <path d="M42.6311861,2.09967176 C42.6508092,2.09967176 42.5919399,2.18797572 42.5821283,2.20759882 C42.5625052,2.23703347 42.5428821,2.26646812 42.523259,2.30571432 C42.4938243,2.40382982 42.523259,2.43326447 42.5330705,2.50194533 C42.5330705,2.52156843 42.5526936,2.54119153 42.5723168,2.54119153 C42.5723168,2.54119153 42.5723168,2.54119153 42.5723168,2.54119153 C42.6409976,2.53137998 42.7685478,2.43326447 42.8764748,2.46269913 C42.9942134,2.48232223 43.111952,2.46269913 43.2100675,2.39401827 C43.6417757,2.18797572 43.4847909,2.08986021 43.8281952,1.96231006 C43.8674414,1.94268696 44.4365113,1.78570215 44.4266998,1.74645595 C44.4070767,1.68758665 44.0440493,1.6385289 43.896876,1.62871735 C43.8478183,1.6189058 43.7202681,1.74645595 43.6515873,1.7562675 C43.5534718,1.7758906 43.5436602,1.7758906 43.5436602,1.7758906 C43.6221526,1.72683285 43.6908335,1.66796355 43.7497028,1.5992827 C43.7987605,1.5404134 43.8380067,1.4815441 43.8674414,1.42267479 C43.8674414,1.42267479 44.0636724,1.03021278 44.0832955,0.235477207 C44.093107,0.156984805 44.0636724,0.0686808521 44.0048031,0.0196231006 C43.9949915,0 43.98518,0 43.9753684,0 C43.9655569,0 43.9557453,0 43.9557453,0.0098115503 C43.896876,0.0784924024 43.8380067,0.147173254 43.7987605,0.235477207 C43.5730949,0.696620071 43.5240371,1.11851673 43.1315751,1.56984805 C43.1021405,1.5992827 43.0727058,1.58947115 43.0530827,1.5992827 C42.5723168,1.7562675 42.3564626,1.36380549 41.8953198,0.833981775 C41.846262,0.775112474 41.738335,0.510200616 41.7285234,0.686808521 C41.7089003,0.892851077 41.7285234,1.09889363 41.7775812,1.29512464 C41.9247544,1.7170213 42.2191009,2.04080246 42.6311861,2.09967176" id="Path"></path>
            <path d="M36.7246328,10.2825047 C36.7540674,10.2726932 36.7736905,10.2628816 36.8031252,10.2530701 C36.8325598,10.233447 36.8521829,10.2040123 36.8423714,10.1647661 C36.8325598,10.1353315 36.8031252,10.1058968 36.763879,10.1058968 L36.5774595,10.1058968 L35.8317817,10.1058968 C35.3215811,10.0960853 34.7721343,10.0862737 34.2226874,10.0568391 C33.8106023,10.037216 33.3985172,9.98815821 32.9864321,9.91947735 L32.6037816,9.86060805 L32.5939701,9.86060805 C32.5056661,9.8507965 32.4467968,9.84098495 32.4173622,9.80173875 C32.3977391,9.76249255 32.3879275,9.70362325 32.4075506,9.66437705 C32.4173622,9.60550774 32.3977391,9.53682689 32.3584929,9.48776914 L32.4075506,9.32097278 C32.4173622,9.30134968 32.4075506,9.28172658 32.3977391,9.27191503 C32.3879275,9.26210348 32.378116,9.26210348 32.3683044,9.26210348 L32.3486813,9.26210348 C32.289812,9.28172658 32.2309427,9.30134968 32.181885,9.34059589 C32.0837695,9.32097278 31.9758424,9.36021899 31.9071616,9.42889984 L31.8482923,9.48776914 L31.789423,9.55644999 C31.4950765,9.88023115 31.20073,10.0960853 30.8867603,10.2138239 C30.6218485,10.3217509 30.3863713,10.4100549 30.1410825,10.5081704 L29.8173014,10.625909 C29.454274,10.7632707 29.1403044,10.8810093 28.5516114,11.0772403 C28.080657,11.2244135 27.5900794,11.3519637 27.1093135,11.4500792 C26.8640247,11.5089485 26.6089244,11.5580063 26.3636357,11.6266871 C26.3636357,11.6266871 26.13797,11.6855564 26.13797,11.7738604 C26.13797,11.7934835 26.1477815,11.8131066 26.1575931,11.8229181 C26.1772162,11.8327297 26.1870277,11.8327297 26.2066509,11.8327297 L26.7070399,11.7542373 L26.530432,11.803295 C26.5108089,11.803295 26.4911858,11.8327297 26.4911858,11.8523528 C26.4911858,11.8719759 26.5108089,11.891599 26.5402436,11.891599 C27.0995019,11.9308452 27.6685718,11.9308452 28.2278302,11.9014105 C28.276888,11.9014105 28.3357573,11.8817874 28.3750035,11.8621643 L28.4829305,11.8425412 C28.5025536,11.8817874 28.5614229,11.8817874 28.5908576,11.8719759 C29.2286083,11.8327297 29.7976783,11.7051795 30.1999518,11.5089485 L30.2195749,11.499137 C30.2686327,11.4795139 30.3078789,11.4598908 30.3373135,11.4402676 C30.2293865,11.5874409 30.0037208,11.8523528 29.8761707,11.9897145 C29.8173014,12.0583953 29.7976783,12.1074531 29.8271129,12.1565108 C29.8565476,12.195757 29.9448515,12.2153801 30.0233439,12.2153801 C30.0920248,12.2153801 30.1705172,12.2055686 30.239198,12.195757 C30.4256175,12.1565108 30.6120369,12.1368877 30.8082679,12.1270762 L30.8769488,12.1270762 C30.9063834,12.1270762 30.9358181,12.1074531 30.9456296,12.08783 L31.0731798,11.8327297 L31.0044989,12.0289607 C30.9946874,12.0485838 31.0044989,12.0780184 31.024122,12.08783 C31.0437451,12.1074531 31.0633682,12.1074531 31.0829913,12.1074531 C31.20073,12.0976415 31.3184686,12.0682069 31.4362072,12.0387722 C31.9169731,11.9112221 32.181885,11.8327297 32.4566084,11.5481947 C32.4762315,11.5285716 32.486043,11.5089485 32.486043,11.4893254 C32.486043,11.4893254 32.4958546,11.4893254 32.4958546,11.4893254 C32.5154777,11.4893254 32.5351008,11.4795139 32.5449123,11.4598908 C32.6037816,11.3813983 32.5645354,11.322529 32.4467968,11.214602 C32.4271737,11.2047904 32.3977391,11.1753558 32.3683044,11.1361096 C32.2996236,11.0674287 32.2015081,10.9791248 32.1426388,10.930067 C32.1622619,10.930067 32.181885,10.930067 32.2015081,10.930067 C32.4566084,10.9496901 32.7117087,10.9791248 32.966809,10.9987479 L33.2611555,11.0281825 C33.2807786,11.0281825 33.2905902,11.0281825 33.3004017,11.018371 C33.3102133,11.0085594 33.3200248,10.9987479 33.3298364,10.9889363 C33.3396479,10.9693132 33.359271,10.9496901 33.3788941,10.9595017 C33.3887057,10.9595017 33.3887057,10.9693132 33.3985172,10.9693132 L33.4377634,11.0085594 C33.4573865,11.0281825 33.4770096,11.0379941 33.4966327,11.0379941 C33.8792832,11.0674287 34.2717452,11.0478056 34.6543957,10.9693132 C35.2430887,10.8417631 35.8710279,10.6847783 36.4695325,10.4002433 C36.479344,10.3904318 36.5284018,10.3708087 36.5185902,10.3315625 C36.5087787,10.2923163 36.4695325,10.2923163 36.4499094,10.2825047 L36.371417,10.2726932 L36.5578364,10.2726932 C36.6167057,10.2923163 36.6657635,10.2923163 36.7246328,10.2825047" id="Path"></path>
            <path d="M39.0892164,11.018371 C38.92242,10.8025169 38.7752468,10.6062859 38.7752468,10.5964743 C38.7163775,10.5277935 38.6476966,10.4689242 38.5888273,10.5081704 C38.529958,10.5474166 38.5495811,10.625909 38.6280735,10.7828938 C38.814493,11.1459211 39.1873319,11.5089485 39.3639398,11.6561218 C39.3639398,11.6561218 39.3541283,11.6659333 39.3541283,11.6659333 C39.3345052,11.7248026 39.3835629,11.7738604 39.4129976,11.7934835 C39.4718669,11.8425412 39.5307362,11.8817874 39.599417,11.9112221 C39.599417,11.9210336 39.599417,11.9308452 39.599417,11.9406567 C39.599417,11.9799029 39.6288517,12.0093376 39.6582863,12.0191491 L39.6975325,12.0387722 C39.8054596,12.0976415 39.9231982,12.1368877 40.0507483,12.1663224 L40.0507483,12.1663224 C40.0213137,12.1859455 40.0115021,12.2153801 40.0115021,12.2546263 C40.0213137,12.3527418 40.1782985,12.4017996 40.3058486,12.4214227 L40.3352833,12.4214227 C40.4235872,12.4312342 40.4235872,12.4312342 40.4432103,12.4704804 C40.4922681,12.5685959 40.5903836,12.6274652 40.6983106,12.6274652 C40.7473684,12.6274652 40.7964261,12.6372768 40.8454839,12.6667114 C40.8945416,12.7059576 41.0220918,12.7746385 41.1005842,12.7255807 L41.1103958,12.7157692 C41.1202073,12.7157692 41.1202073,12.7255807 41.1300189,12.7255807 C41.2379459,12.8138847 41.3262499,12.7746385 41.345873,12.7550154 C41.3556845,12.7550154 41.3851192,12.7746385 41.4047423,12.78445 C41.4538,12.8138847 41.5126693,12.8138847 41.5519155,12.78445 C41.5715386,12.7746385 41.5813502,12.7648269 41.5911617,12.7648269 C41.6009733,12.7746385 41.6205964,12.78445 41.6402195,12.7942616 C41.6402195,12.8531309 41.6402195,12.9021886 41.6205964,12.9512464 C41.6009733,13.0297388 41.5715386,13.1082312 41.5224809,13.1769121 C41.4832347,13.1965352 41.345873,13.3044622 41.1594535,13.461447 C40.9435994,13.6086203 40.7179337,13.745982 40.4922681,13.8735321 C40.3745295,13.942213 40.3254717,13.9716476 40.3058486,13.9814592 C40.276414,14.0010823 40.2567909,14.0403285 40.2567909,14.0697631 C40.2666024,14.1188209 40.3156602,14.138444 40.3549064,14.1482555 L40.384341,14.1580671 L40.384341,14.1776902 C40.384341,14.2169364 40.4137757,14.246371 40.4530219,14.2659941 C40.5118912,14.2758057 40.580572,14.2561826 40.6296298,14.2169364 L40.8454839,14.05014 C41.1202073,13.853909 41.2281344,13.7852282 41.2968152,13.745982 C41.3360614,13.745982 41.3654961,13.745982 41.4047423,13.7557935 C41.4439885,13.7656051 41.4930462,13.7656051 41.542104,13.7557935 C41.7775812,13.6969242 42.0032468,13.6184318 42.2092894,13.5105048 C42.3564626,13.4320124 42.4938243,13.3437084 42.6311861,13.2455929 L42.807794,13.1278543 C42.9451557,13.0297388 43.0236481,12.872754 43.0236481,12.7059576 C43.0825174,12.6667114 43.1315751,12.6274652 43.1806329,12.5784075 C43.2787484,12.5293497 43.3278061,12.4214227 43.2983715,12.3233072 C43.3179946,12.284061 43.3572408,12.2448148 43.396487,12.2251917 C43.396487,12.2251917 43.4455447,12.2055686 43.4259216,12.1859455 C43.3572408,12.1466993 43.2787484,12.1368877 43.200256,12.1565108 C43.1806329,12.1663224 43.1610098,12.1663224 43.1511982,12.1565108 C43.0727058,12.1368877 42.9844019,12.1466993 42.9059095,12.1663224 C42.9255326,11.9897145 43.004025,11.8131066 43.1315751,11.6855564 L43.1806329,11.6364987 C43.4161101,11.410833 43.7104566,11.126298 43.8085721,10.6455321 C43.8576298,10.4198664 43.9263107,10.1942008 44.0048031,9.97834665 C44.0832955,9.7723041 44.1323532,9.56626154 44.1715994,9.36021899 C44.1912225,8.29076 44.0636724,8.2711369 44.0146146,8.26132535 C44.0146146,8.26132535 44.0048031,8.26132535 44.0048031,8.26132535 C43.9263107,8.26132535 43.8772529,8.34962931 43.8085721,8.59491806 C43.7987605,8.57529496 43.7791374,8.56548341 43.7497028,8.56548341 C43.5632833,8.55567186 42.9549672,9.66437705 42.8568517,10.1058968 L42.8470402,10.1745777 C42.8470402,10.1942008 42.8372286,10.2236354 42.8274171,10.2432585 C42.8176055,10.2628816 42.7979824,10.2726932 42.7881709,10.2923163 C42.7489247,10.3806202 42.71949,10.4787357 42.71949,10.5768512 C42.71949,10.6455321 42.6998669,10.7240245 42.6802438,10.7828938 C42.6508092,10.82214 42.6213745,10.8810093 42.5821283,10.9496901 C42.5526936,11.0085594 42.523259,11.0674287 42.4840128,11.126298 C42.4545781,11.1655442 42.434955,11.214602 42.434955,11.2538482 C42.434955,11.2832828 42.4251435,11.3127175 42.4055204,11.3323406 C42.3858973,11.3519637 42.3662742,11.3715868 42.3368395,11.3912099 C42.2877818,11.410833 42.2681587,11.4598908 42.2681587,11.5187601 C42.2681587,11.5285716 42.2779702,11.5481947 42.2779702,11.5580063 C42.2681587,11.5678178 42.2583471,11.5776294 42.2485356,11.5874409 C42.1994778,11.6266871 42.1798547,11.6855564 42.1896663,11.7444257 C42.1111739,11.803295 42.0523046,11.8425412 42.0817392,11.9504683 C42.0817392,11.9700914 42.0915508,11.9799029 42.0915508,11.9897145 C42.0915508,11.999526 42.0915508,11.9897145 42.0915508,11.9897145 L42.0817392,11.999526 C42.0719277,12.0093376 42.0621161,12.0191491 42.0523046,12.0191491 C42.0032468,12.0485838 41.9836237,12.0976415 41.9836237,12.1565108 L41.9836237,12.2055686 C41.7677696,12.1859455 40.7571799,12.0976415 40.1586754,11.7542373 C39.5013015,11.3617752 39.2560127,11.214602 39.0892164,11.018371" id="Path"></path>
            <path d="M43.7693259,29.4640856 C43.9557453,28.973508 44.0244262,28.4436843 43.9655569,27.9138606 C43.9459338,27.6195141 43.5730949,25.7356964 43.6908335,27.5802679 C43.8085721,29.4248393 42.8372286,30.3471251 41.9640006,31.5146996 C41.7187119,31.8384807 41.4636116,32.1426388 41.1790766,32.4271737 L41.1594535,32.3879275 C41.1398304,32.3486813 41.1202073,32.3192467 41.0907727,32.2996236 C41.0711496,32.289812 41.0515265,32.2701889 41.0319034,32.2505658 C41.0024687,32.181885 40.953411,32.1230157 40.9043532,32.0641464 L40.8749185,31.6716844 C40.8749185,31.6716844 40.8749185,31.5245111 40.7866146,31.5245111 C40.6983106,31.5245111 40.6590644,31.6324382 40.6590644,31.6324382 L40.5020796,31.9267847 C40.4039641,31.9562193 40.3156602,31.9954655 40.2469793,32.0543348 C39.9526328,32.2603774 39.8937635,32.486043 39.7171556,32.7117087 C39.6386632,32.8098242 39.5699824,32.9275628 39.49149,33.0256783 C39.1971434,33.447575 38.8537392,33.6339944 38.529958,33.7811677 C38.1080614,33.9577756 37.352572,34.0166449 37.2937027,33.9970218 C37.1465294,33.9773987 36.8423714,33.9185294 36.4597209,33.8596601 C35.7729124,33.751733 35.0959154,33.555502 34.4581647,33.2709671 C34.1932528,33.1336054 33.947964,32.9766206 33.7026753,32.8000127 C33.5653136,32.7117087 33.4377634,32.6135932 33.3102133,32.5056661 C33.1434169,32.3486813 33.0158668,32.1622619 32.9079397,31.9562193 C32.8883166,31.9169731 32.8686935,31.8679154 32.8392589,31.8188576 C32.8785051,31.789423 32.9275628,31.7697999 32.9766206,31.7501768 C33.0256783,31.7305537 33.0943592,31.701119 33.1532285,31.6618728 C33.3200248,31.5735689 33.5260674,31.4754534 33.6536175,31.4263956 C33.6830522,31.4165841 33.7026753,31.4067725 33.7321099,31.396961 C33.751733,31.3871494 33.7615446,31.3773379 33.7713561,31.3675263 L33.8204139,31.3282801 C33.8204139,31.3282801 33.8302254,31.3479032 33.8498485,31.3479032 C33.947964,31.3282801 34.0460795,31.308657 34.144195,31.2694108 C34.2226874,31.2301646 34.1245719,31.0928029 34.2128759,31.0633682 C34.4189185,30.9750643 34.9879884,30.9750643 35.2332771,30.9063834 C35.2725233,30.8965719 35.301958,30.8475141 35.2921464,30.8082679 C35.2921464,30.8082679 35.2921464,30.8082679 35.2921464,30.7984564 L35.3117695,30.7592102 L35.3706388,30.827891 C35.3804504,30.8475141 35.409885,30.8573257 35.4295081,30.8475141 C35.5374352,30.8180795 35.6257391,30.7788333 35.5668698,30.6905293 C35.5668698,30.6905293 35.5080005,30.5924138 35.5080005,30.5924138 C35.3902619,30.4256175 35.2038425,30.1116479 35.0861039,29.9448515 C34.9683653,29.7780552 34.8604382,29.6014473 34.7721343,29.4150278 C34.7426996,29.3463469 34.6936419,29.2678545 34.7721343,29.1501159 C34.8408151,29.0814351 34.909496,29.0127542 34.9781768,28.9538849 C35.4000735,28.5123652 35.7827239,28.3161342 36.0476358,27.7176296 C36.1457513,27.511587 36.2242437,27.1583712 36.2340553,27.1583712 C36.2438668,27.1583712 36.2242437,26.9425171 36.371417,26.3538241 C36.4597209,26.0104198 36.4695325,25.657204 36.3812285,25.3137998 C36.3616054,25.2549305 36.3321708,25.1960612 36.2929246,25.1470034 L36.3027361,24.8134107 C36.3027361,24.8134107 36.3223592,24.6956721 36.2438668,24.6858606 C36.1653744,24.676049 36.1261282,24.764353 36.1261282,24.764353 L35.9593318,24.9900186 C35.8808394,24.9998302 35.7925355,25.0292648 35.7238546,25.068511 C35.4491312,25.2156843 35.3608273,25.3922922 35.1940309,25.5590885 C35.1351616,25.6179578 35.0762923,25.6768271 35.0272346,25.7356964 C34.8800613,25.5689001 34.7623227,25.3628575 34.7034534,25.1470034 C34.5464686,24.5583104 33.7713561,21.6246569 33.7713561,20.3687784 C33.7713561,20.3687784 33.7615446,19.9468818 33.751733,19.5740428 C33.7321099,19.0736538 34.2423105,18.1808027 34.3011798,18.0728757 C34.3600491,17.9649486 34.232499,18.0140064 34.232499,18.0140064 C33.5260674,18.6615687 33.3985172,19.3778118 33.3985172,19.3778118 C33.3985172,19.4072465 33.3887057,19.4366811 33.3788941,19.4563042 C33.359271,19.4857389 33.3102133,19.4661158 33.3004017,19.3581887 C33.2807786,19.2306386 33.2415324,19.024596 33.2415324,19.024596 C33.2415324,19.024596 33.2120978,18.828365 33.1336054,19.0638422 C33.0453014,19.309131 32.9962437,19.5544197 32.9766206,19.8095201 C32.9766206,19.8095201 32.966809,20.0548088 32.9079397,19.9468818 C32.8686935,19.8585778 32.8392589,19.7702739 32.8196358,19.6721584 C32.8196358,19.6721584 32.7803896,19.3385656 32.6920856,19.789897 C32.6234047,20.182359 32.5645354,20.4570824 32.5645354,20.4570824 C32.5645354,20.4570824 32.5645354,20.5453863 32.5154777,20.5159517 C32.4664199,20.486517 32.4173622,20.37859 32.378116,20.486517 C32.3388698,20.5944441 32.2800005,20.9967176 32.4075506,21.2910642 C32.4075506,21.2910642 32.4762315,21.4088028 32.3879275,21.4872952 C32.3879275,21.4872952 32.2701889,21.5952222 32.2800005,21.7031493 C32.289812,21.8110763 32.2603774,21.8601341 32.2211312,21.8895687 C32.181885,21.9190034 32.0347117,22.0661766 32.1132041,22.1741037 C32.181885,22.2820307 32.2309427,22.3016538 32.181885,22.3507116 C32.1230157,22.4095809 31.9660309,22.4978848 31.9758424,22.6058119 C31.9954655,22.6843043 32.0445233,22.7431736 32.1132041,22.7824198 C32.1132041,22.7824198 32.1720734,22.8020429 32.1524503,22.8412891 C32.1426388,22.8805353 32.1132041,22.9099699 32.0739579,22.9197815 C32.0249002,22.9492162 31.9954655,23.0080855 32.0052771,23.0669548 C32.0249002,23.1356356 32.1328272,23.2043165 32.1328272,23.2043165 C32.1328272,23.2043165 32.1916965,23.2435627 32.2015081,23.2828089 C32.2015081,23.3220551 32.1720734,23.3514897 32.1230157,23.3907359 C32.0249002,23.4594168 31.9954655,23.5477207 32.0150886,23.5967785 C32.0347117,23.6458362 32.1426388,23.694894 32.1426388,23.694894 C32.1426388,23.694894 32.181885,23.7243286 32.1622619,23.7537633 C32.1426388,23.7831979 32.0052771,23.891125 32.0249002,23.9499943 C32.0445233,24.0088636 32.289812,24.087356 32.289812,24.087356 C32.289812,24.087356 32.4271737,24.1167906 32.3486813,24.2050946 C32.3486813,24.2541523 32.181885,24.5288757 32.181885,24.5288757 L32.1720734,24.5484988 C31.9267847,24.4503833 31.4656418,24.2639639 30.9652527,24.0481098 C30.4452406,23.8126326 29.93504,23.5575323 29.4444624,23.2533742 C28.8557694,22.9001584 29.1403044,22.2231614 28.9244503,21.9288149 C28.7576539,21.7031493 28.188584,21.2910642 28.188584,20.967283 C28.188584,20.7808635 28.1983956,20.5944441 28.2180187,20.4178362 C29.0912466,20.4767055 29.5131433,20.3099091 30.1508941,20.1725474 C30.5041099,20.094055 30.6807178,19.7702739 30.7592102,19.4366811 L30.7984564,19.4268696 C30.8671372,19.3581887 31.0044989,19.309131 31.0731798,19.3385656 C31.0731798,19.3385656 31.1418607,19.3581887 31.1418607,19.3287541 C31.1026145,19.2110155 31.024122,19.1129 30.916195,19.0638422 C30.8867603,19.0540307 30.8671372,19.0344076 30.8573257,19.0049729 C30.8475141,18.9951614 30.8377026,18.9853498 30.827891,18.9657267 C30.8377026,18.8479881 30.8377026,18.7400611 30.827891,18.6223225 C30.8377026,18.5928878 31.0633682,18.0140064 31.6226266,17.7687176 C32.2015081,17.5136173 32.8981282,17.2487054 33.3887057,16.4245352 C33.8792832,15.600365 34.5464686,14.9135565 34.8310036,14.334675 C34.8310036,14.334675 36.0378243,11.1066749 34.8408151,12.8825655 C34.8408151,12.8825655 34.6642072,12.980681 34.713265,12.7452038 C34.7623227,12.5097266 34.6543957,12.3134956 34.3502376,12.8531309 C34.3502376,12.8531309 34.0558911,13.5006932 34.1245719,13.1474774 C34.1932528,12.7942616 34.0460795,12.5587844 33.8204139,13.1180428 C33.5849367,13.6674896 33.5456905,13.6282434 33.5653136,13.4222008 C33.5849367,13.2161583 33.3494595,13.3927662 33.2317209,13.745982 C33.1139823,14.0991978 33.0060552,14.2659941 32.8490704,14.4033558 C32.6920856,14.5407175 32.486043,14.4524136 32.3683044,14.8448756 C32.2505658,15.2275261 32.2505658,15.0509182 32.093581,15.1686568 C31.9365962,15.2765838 31.7403652,15.8947115 31.593192,16.0026385 C31.4460187,16.1105656 31.20073,16.3754775 31.0437451,16.4834045 C30.8867603,16.5913316 30.9260065,16.7188817 30.7592102,16.8071857 C30.5924138,16.8954896 30.5041099,16.8464319 30.4844868,16.9543589 C30.4648637,17.062286 30.523733,17.0819091 30.3373135,17.1604015 C30.1508941,17.2388939 30.2882558,17.3566325 30.131271,17.4056902 C29.9742862,17.454748 29.9154169,17.4743711 29.8957938,17.6019212 C29.8761707,17.7392829 29.9154169,17.758906 29.7878667,17.8079638 C29.6603166,17.8570215 29.6406935,17.8177753 29.5916357,17.955137 C29.5327664,18.0924988 29.5720126,18.2004258 29.4738971,18.1415565 C28.9440734,17.84721 28.4436843,17.5234288 27.9629184,17.1604015 C27.7764989,17.0230398 27.3938484,16.6796355 26.9817633,16.296985 C26.5696782,15.8750884 25.460973,14.6780792 24.9998302,13.8440975 C24.764353,13.4222008 24.4601949,13.0297388 24.1854715,12.5489728 C23.8420672,11.9504683 23.5280976,11.3421521 23.2631858,10.7044014 C22.8609122,9.6741886 23.0080855,9.14436488 23.0080855,9.14436488 C23.0080855,9.14436488 23.2435627,9.02662628 23.2435627,9.02662628 C23.3907359,8.97756852 23.5379092,8.94813387 23.6850824,8.91869922 L23.694894,8.91869922 C23.7243286,8.91869922 23.7439517,8.90888767 23.7635748,8.88926457 C23.7733864,8.89907612 23.7930095,8.90888767 23.8126326,8.89907612 C23.8616903,8.88926457 23.9205596,8.87945302 23.9499943,8.83039527 C23.9598058,8.80096062 23.9598058,8.77152597 23.9499943,8.74209132 L23.9401827,8.72246822 L23.9205596,8.67341046 C23.8518788,8.53604876 23.7930095,8.40849861 23.7341402,8.29076 C23.6752709,8.16320985 23.6164016,8.0356597 23.5771554,7.90810954 L23.5477207,7.87867489 C23.5280976,7.83942869 23.5379092,7.79037094 23.5673438,7.75112474 C23.5967785,7.73150164 23.6164016,7.70206699 23.6556478,7.68244388 C23.6752709,7.67263233 23.694894,7.65300923 23.7145171,7.63338613 C23.802821,7.55489373 23.891125,7.48621288 23.9696174,7.42734358 C24.1658484,7.28017032 24.3620794,7.13299707 24.4896295,6.85827366 C24.5190642,6.79940436 24.5484988,6.74053506 24.568122,6.68166575 C24.6564259,6.5933618 24.9017147,6.3971308 25.0292648,6.4756232 C25.1273803,6.5344925 25.1960612,6.46581165 25.2353074,6.4167539 L25.2451189,6.40694235 C25.2451189,6.40694235 25.2549305,6.3971308 25.2549305,6.3971308 L25.264742,6.40694235 C25.2745536,6.4167539 25.2941767,6.42656545 25.3039882,6.42656545 C25.3628575,6.4560001 25.3922922,6.4560001 25.4315384,6.4167539 L25.4413499,6.40694235 C25.4511615,6.3971308 25.4904077,6.36769614 25.5002192,6.37750769 C25.5296539,6.40694235 25.6081463,6.436377 25.6964502,6.32844994 C25.7062618,6.31863839 25.7160733,6.30882684 25.7258849,6.29901529 C25.7356964,6.29901529 25.745508,6.30882684 25.7553195,6.30882684 C25.853435,6.36769614 26.1674046,6.06353809 26.1772162,6.06353809 C26.2164624,6.02429188 26.2753317,6.00466878 26.334201,6.00466878 C26.4421281,5.98504568 26.5206205,5.91636483 26.5598667,5.81824933 C26.5794898,5.75938003 26.5794898,5.75938003 26.6776053,5.72994538 L26.7070399,5.72013382 C26.7855323,5.70051072 26.9719518,5.63182987 26.9719518,5.53371437 C26.9719518,5.48465662 26.9425171,5.44541042 26.8934594,5.44541042 C26.8836478,5.44541042 26.8738363,5.43559887 26.8738363,5.43559887 C26.9032709,5.41597577 26.9327056,5.40616422 26.9621402,5.40616422 C27.0798788,5.36691801 27.1976174,5.30804871 27.2957329,5.23936786 L27.3349791,5.20993321 C27.3644138,5.20012166 27.3742253,5.17068701 27.3742253,5.15106391 C27.3742253,5.13144081 27.3644138,5.12162926 27.3546022,5.11181771 C27.4232831,5.06275995 27.4919639,5.00389065 27.5508332,4.94502135 C27.5704563,4.92539825 27.6097025,4.8763405 27.5900794,4.8370943 C27.5900794,4.82728275 27.5802679,4.8174712 27.5606448,4.8174712 C27.5704563,4.80765965 27.5704563,4.7978481 27.5802679,4.78803655 C27.7372527,4.61142864 28.0904685,4.16009733 28.2376418,3.72838911 C28.3063226,3.53215811 28.3161342,3.47328881 28.2670764,3.44385416 C28.2376418,3.4340426 28.1983956,3.4340426 28.1199032,3.55178121 C28.1002801,3.57140431 27.9432953,3.77744687 27.7863104,4.02273562 C27.6097025,4.28764748 27.3938484,4.44463229 26.9032709,4.78803655 C26.8247785,4.84690585 26.7462861,4.90577515 26.6481706,4.974456 C26.0889122,5.36691801 25.2549305,5.45522197 24.9507724,5.48465662 L24.9409609,5.39635266 C25.0488879,5.30804871 25.0881341,5.17068701 25.0488879,5.04313685 C25.068511,5.00389065 25.0979457,4.974456 25.1371919,4.9548329 C25.156815,4.94502135 25.1862496,4.92539825 25.1960612,4.8959636 C25.1960612,4.88615205 25.1960612,4.86652895 25.1862496,4.8567174 C25.1077572,4.80765965 25.0096417,4.80765965 24.9213378,4.84690585 C24.9115262,4.8567174 24.9017147,4.8567174 24.8820916,4.8567174 C24.87228,4.84690585 24.8526569,4.84690585 24.8428454,4.84690585 C24.6466144,4.8174712 24.4503833,4.88615205 24.3228332,5.04313685 C24.2149061,5.11181771 24.1167906,5.20012166 24.0284867,5.28842561 C23.9892405,5.32767181 23.9499943,5.36691801 23.9107481,5.39635266 C23.8715019,5.42578732 23.8715019,5.43559887 23.8518788,5.44541042 L23.8224441,5.47484507 C23.6164016,5.66126452 23.1650703,5.77900313 23.1650703,5.77900313 C23.1356356,5.77900313 23.106201,5.78881468 23.0767663,5.79862623 C22.9492162,5.82806088 22.7726082,5.86730708 22.6352465,5.82806088 C22.429204,5.77900313 22.2035383,5.76919158 21.9974958,5.78881468 C21.9190034,5.78881468 21.840511,5.79862623 21.752207,5.80843778 C21.6050338,5.82806088 21.4578605,5.83787243 21.3106873,5.81824933 C21.1242678,5.77900313 20.9378483,5.72013382 20.7612404,5.64164142 L20.5453863,5.19031011 L20.5257632,5.23936786 L0,46.1142864 L8.73227977,46.1142864 L11.8621643,40.4235872 L29.2089852,40.4235872 L32.2996236,46.1142864 L41.0319034,46.1142864 L38.2159884,40.4824565 C38.6084504,40.0115021 38.422031,40.2273562 38.6084504,40.1488638 C38.814493,40.0703714 38.9518547,39.7858365 39.1382741,39.6779094 C39.1775203,39.6582863 39.2167665,39.6386632 39.2560127,39.6190401 C39.2658243,39.6190401 39.2658243,39.6092286 39.2658243,39.599417 C39.2658243,39.599417 39.295259,39.4816784 39.3148821,39.5405477 C39.3148821,39.5503593 39.3246936,39.5601708 39.3443167,39.5601708 C39.3443167,39.5601708 39.3443167,39.5601708 39.3443167,39.5601708 C39.4522438,39.5307362 39.5601708,39.4816784 39.6680979,39.4228091 C39.7564018,39.3737514 39.6190401,39.2167665 39.7171556,39.1677088 C39.9526328,39.0303471 40.1979216,38.9126085 40.4530219,38.8046814 C40.5020796,38.7850583 40.5217027,38.726189 40.5020796,38.6771313 C40.5020796,38.6771313 40.5020796,38.6673197 40.5020796,38.6673197 L40.4137757,38.529958 L40.5903836,38.6967544 C40.6100067,38.7163775 40.6394413,38.726189 40.6590644,38.7163775 C40.776803,38.6673197 40.865107,38.6084504 40.7866146,38.5201465 C40.7866146,38.5201465 40.7081222,38.4122194 40.7081222,38.4122194 C40.5511374,38.2258 40.3941526,38.0393805 40.2371678,37.8627726 C40.080183,37.6861647 39.9330097,37.4899337 39.8054596,37.2838911 C39.7662134,37.2053987 39.6975325,37.1269063 39.7760249,36.9699215 C39.8447058,36.8816176 39.9133866,36.7933136 39.9820675,36.7148212 C40.3941526,36.1359398 40.8356723,35.802347 41.0024687,35.1155385 C41.061338,34.8996844 41.0907727,34.6838303 41.1103958,34.4581647 C41.1103958,34.4483531 41.1202073,34.4385416 41.1300189,34.4385416 C41.1888882,34.4189185 41.2085113,34.3306145 41.2183228,34.2619336 C41.2281344,34.1932528 41.257569,34.1932528 41.3262499,34.1932528 L41.3949307,34.1932528 C41.4930462,34.1834412 41.5715386,34.1147604 41.5911617,34.0264564 C41.6205964,33.9381525 41.7285234,33.9381525 41.7775812,33.9381525 C41.8266389,33.9381525 41.846262,33.8498485 41.8855082,33.751733 C41.9051313,33.6928637 42.0130584,33.6830522 42.0817392,33.6634291 C42.1896663,33.6339944 42.1504201,33.4966327 42.1504201,33.447575 C42.1504201,33.3985172 42.3074049,33.3396479 42.3368395,33.2905902 C42.3957088,33.2022862 42.2975933,33.1139823 42.3858973,33.0747361 C42.4545781,33.0453014 42.5134474,32.9864321 42.5330705,32.9177513 C42.5428821,32.858882 42.611563,32.8392589 42.5919399,32.770578 C42.5723168,32.7018971 42.6704323,32.6430278 42.7489247,32.5939701 C42.8274171,32.5351008 42.7881709,32.3486813 42.7881709,32.2505658 C42.7979824,32.1720734 42.8274171,32.1033926 42.8764748,32.0445233 C42.8764748,32.0445233 43.1708213,31.7501768 43.3179946,31.6128151 C43.4553563,31.4754534 43.2493137,31.5146996 43.1904444,31.5146996 C43.1413867,31.5245111 43.0138365,31.5735689 42.9745903,31.5245111 C42.9353441,31.4754534 43.0432712,31.3282801 43.0432712,31.3282801 C43.0432712,31.3282801 43.4946025,30.8082679 43.6319642,30.6414716 C43.8576298,30.3667482 43.6221526,30.4942983 43.6221526,30.4942983 C43.6221526,30.4942983 43.5436602,30.5335445 43.504414,30.5041099 C43.4847909,30.4844868 43.5436602,30.4059944 43.5436602,30.4059944 C43.5436602,30.4059944 43.6810219,30.1901403 43.8183836,29.9546631 C44.0734839,29.4935202 43.7693259,29.7584321 43.7693259,29.7584321 C43.7693259,29.7584321 43.700645,29.8369245 43.6810219,29.7682436 C43.6613988,29.6897512 43.7497028,29.4837087 43.7693259,29.4640856 L43.7693259,29.4640856 Z M21.3401219,6.68166575 L21.9680611,6.86808521 C22.429204,7.00544691 23.0080855,7.16243172 23.1650703,7.19186637 C23.1650703,7.19186637 23.2828089,7.20167792 23.1945049,7.34885117 C23.1258241,7.47640133 23.0571432,7.60395148 23.0080855,7.74131319 L22.6941158,8.34962931 L22.6352465,8.45755636 L22.4488271,8.84020682 C22.4193924,8.90888767 22.3801462,8.97756852 22.3310885,9.02662628 C22.3212769,9.02662628 22.3212769,9.03643783 22.3114654,9.03643783 C22.2820307,9.03643783 22.2624076,8.96775697 22.2525961,8.90888767 C22.2427845,8.85001837 22.2427845,8.69303357 22.2427845,8.69303357 C22.2427845,8.45755636 22.2427845,8.35944086 22.232973,7.96697884 C22.2231614,7.77074784 21.4382374,6.90733141 21.3204988,6.80921591 C21.1537024,6.66204265 21.2223833,6.6522311 21.3401219,6.68166575 M15.6788574,33.3887057 L20.5355748,23.106201 L25.3334229,33.3887057 L15.6788574,33.3887057 Z M27.6195141,19.5151735 L27.4919639,19.5446082 C27.4821524,19.5446082 27.4821524,19.5544197 27.4723408,19.5544197 C27.4232831,19.5544197 27.4330946,19.4464927 27.4330946,19.4464927 C27.4330946,19.4464927 27.3644138,18.3475991 27.3251676,18.0532526 C27.315356,17.9845717 27.3055445,17.9158908 27.3055445,17.84721 C27.3055445,17.8373984 27.3055445,17.8373984 27.315356,17.84721 C27.3251676,17.8570215 27.3447907,17.8668331 27.3546022,17.8766446 C27.3742253,17.8962677 27.3938484,17.9158908 27.4232831,17.9453255 C27.4232831,17.9453255 27.6587603,18.2592951 29.1206813,18.8479881 C29.1206813,18.8479881 29.3365354,18.9461036 29.0127542,19.0442191 L28.0904685,19.3581887 L27.6195141,19.5151735 Z M33.643806,28.5614229 L33.6143713,28.6202922 C33.6045598,28.6399153 33.5849367,28.6595384 33.5751251,28.6889731 C33.5653136,28.7085962 33.5456905,28.7380308 33.5260674,28.7576539 C33.5064443,28.777277 33.4966327,28.8067117 33.4770096,28.8361463 C33.4573865,28.865581 33.4279519,28.9048272 33.3985172,28.9440734 C33.3690826,28.9833196 33.3494595,29.0127542 33.3200248,29.0520004 C33.2219093,29.1795506 33.1139823,29.3071007 33.0060552,29.4248393 C32.966809,29.4738971 32.9177513,29.5229549 32.8785051,29.5622011 C32.8392589,29.6014473 32.7902011,29.6406935 32.7509549,29.6799397 C32.6135932,29.7976783 32.4369853,29.9742862 32.378116,29.9742862 L32.3683044,29.9742862 C32.3683044,29.9742862 32.3584929,29.93504 32.378116,29.8859822 C32.3879275,29.8565476 32.3977391,29.8271129 32.4075506,29.7976783 C32.4075506,29.7878667 32.4173622,29.7780552 32.4173622,29.7682436 C32.4369853,29.7191859 32.4566084,29.6701281 32.4762315,29.6210704 C32.486043,29.5916357 32.4958546,29.5622011 32.5154777,29.5229549 C32.5252892,29.4837087 32.5351008,29.4738971 32.5449123,29.4444624 C32.5645354,29.3757816 32.5939701,29.3071007 32.6135932,29.2384199 C32.6234047,29.2089852 32.6332163,29.1795506 32.6430278,29.1501159 C32.6528394,29.1206813 32.6626509,29.0814351 32.6724625,29.0520004 C32.682274,29.0225658 32.6920856,28.9833196 32.6920856,28.9538849 C32.7018971,28.9244503 32.7018971,28.8852041 32.7117087,28.8557694 L32.7117087,28.8165232 L32.7117087,28.8067117 L32.7117087,28.7969001 L32.7117087,28.7380308 C32.7313318,28.6202922 32.7117087,28.5025536 32.6626509,28.384815 C32.6135932,28.276888 32.4075506,28.0119761 32.1622619,27.7176296 C31.9758424,27.4821524 31.7599883,27.2270521 31.5735689,27.011198 C31.5441342,26.9719518 31.504888,26.9327056 31.4754534,26.8934594 L31.308657,26.6874168 C31.2890339,26.6579822 31.2694108,26.6285475 31.2399762,26.6089244 L31.1418607,26.4911858 C31.0928029,26.422505 31.1712953,26.4519396 31.1811069,26.4519396 C31.2988455,26.5009974 31.4460187,26.5794898 31.4460187,26.5794898 L31.6716844,26.7070399 L31.8777269,26.8247785 C31.8777269,26.8247785 32.9569975,27.5017755 33.3788941,27.7372527 L33.7026753,27.9236722 C33.8596601,28.0217877 33.9185294,28.0708454 33.6928637,28.5417998 C33.6634291,28.5221767 33.6536175,28.5417998 33.643806,28.5614229 M39.1578972,37.0189793 C38.9616662,37.6174838 38.3141039,39.1088395 38.1178729,39.7564018 C38.1080614,39.7760249 38.1080614,39.795648 38.0982498,39.8152711 C38.0884383,39.8545173 38.0688152,39.9035751 38.0590036,39.9428213 C38.0491921,39.9624444 38.0491921,39.9820675 38.0393805,40.0115021 C38.0393805,40.0213137 38.0393805,40.0213137 38.029569,40.0213137 C37.8725842,40.0213137 36.371417,36.6068942 36.1555629,36.2340553 L36.2144322,36.2438668 L36.3027361,36.2634899 C36.3223592,36.2634899 36.3419823,36.2733015 36.3616054,36.2733015 L36.6363288,36.3321708 L36.8619945,36.3812285 C37.0189793,36.4106632 37.3035142,36.4499094 37.3427604,36.4597209 C37.3427604,36.4597209 38.8341161,36.6363288 39.0499702,36.6853866 C39.2756358,36.7442559 39.1873319,36.9306753 39.1578972,37.0189793 L39.1578972,37.0189793 Z" id="Shape"></path>
            <path d="M31.8188576,6.18127669 C31.701119,6.17146514 31.6716844,6.12240739 31.6618728,6.01448033 C31.6618728,5.97523413 31.6422497,5.93598793 31.6226266,5.89674173 C31.6226266,5.89674173 31.6618728,5.79862623 31.6716844,5.77900313 C31.6814959,5.75938003 31.6716844,5.72994538 31.6618728,5.72994538 C31.6618728,5.72994538 31.6520613,5.72994538 31.6520613,5.72994538 C31.6422497,5.73975693 31.593192,5.77900313 31.5539458,5.80843778 C31.4754534,5.75938003 31.3675263,5.76919158 31.2988455,5.83787243 C31.0535567,6.04391498 31.0928029,6.09297274 30.4844868,6.15184204 C29.9546631,6.20089979 29.5720126,6.34807304 29.0520004,6.42656545 C28.8753925,6.4560001 28.6202922,6.5344925 28.4829305,6.5737387 C28.4044381,6.5933618 28.384815,6.6718542 28.4927421,6.68166575 C28.777277,6.6718542 29.1893621,6.93676606 29.5131433,6.99563536 C29.8369245,7.05450467 30.0724017,6.96620071 30.3373135,6.93676606 C30.4256175,6.92695451 30.5041099,6.99563536 30.5139214,7.08393932 C30.5139214,7.09375087 30.5139214,7.09375087 30.5139214,7.10356242 C30.5139214,7.25073567 30.3373135,7.45677823 30.0331555,7.76093629 C30.0037208,7.79037094 30.0037208,7.83942869 30.0331555,7.86886334 C30.042967,7.87867489 30.0527786,7.87867489 30.0625901,7.88848644 C30.4746752,8.00622504 30.7690217,7.80018249 31.0339336,8.16320985 C31.0928029,8.24170225 31.1811069,8.1926445 31.1614838,8.1337752 C31.1320491,8.00622504 31.1026145,7.87867489 31.0928029,7.74131319 C31.0731798,7.65300923 31.0731798,7.56470528 31.0731798,7.47640133 C31.0731798,7.40772048 31.0829913,7.34885117 31.0928029,7.28017032 C31.1026145,7.13299707 31.2694108,7.05450467 31.4165841,7.08393932 C31.89735,7.19186637 32.378116,7.28017032 32.8490704,7.38809738 C33.2905902,7.49602443 33.7321099,7.47640133 34.144195,7.26054722 C34.2423105,7.20167792 34.2815567,7.10356242 34.1049488,7.09375087 C34.0460795,7.08393932 33.9675871,7.06431622 33.9185294,7.06431622 C33.4868212,6.98582381 33.1728516,6.81902746 32.8294473,6.632608 C32.5056661,6.436377 32.2113196,6.20089979 31.8188576,6.18127669" id="Path"></path>
            <path d="M29.9154169,0.98115503 L30.1410825,1.19700914 C30.327502,1.35399394 30.3863713,1.41286324 30.5041099,1.51097875 C30.6905293,1.6777751 30.8671372,1.84457146 31.0339336,2.03099091 C31.1909184,2.18797572 31.308657,2.36458362 31.396961,2.57062618 C31.4362072,2.64911858 31.4950765,2.76685718 31.4754534,2.82572649 C31.4362072,2.91403044 31.3577148,2.97289974 31.2694108,2.99252284 C31.0928029,3.03176904 30.9260065,3.07101524 30.7493986,3.09063834 C30.719964,3.10044989 30.7003409,3.12988455 30.7101524,3.1593192 C30.7101524,3.1593192 30.7101524,3.16913075 30.7101524,3.16913075 C30.7886448,3.3555502 30.8573257,3.47328881 31.0633682,3.4340426 C31.20073,3.40460795 31.4067725,3.2966809 31.593192,3.24762315 C31.7207421,3.2181885 31.8482923,3.20837695 31.9758424,3.20837695 C32.0347117,3.20837695 32.0739579,3.1985654 32.1230157,3.18875385 C32.2701889,3.18875385 32.4664199,3.11026145 32.7313318,2.81591494 C32.7313318,2.81591494 32.9373744,2.60987238 32.9471859,2.60987238 C32.966809,2.58043773 33.0845476,2.42345292 33.1041707,2.38420672 C33.1237938,2.33514897 33.1532285,2.28609122 33.1924747,2.24684502 C33.2219093,2.20759882 33.2611555,2.17816417 33.3200248,2.16835262 C33.3200248,2.16835262 33.3494595,2.13891797 33.3494595,2.12910642 C33.3102133,2.08986021 33.2611555,2.07023711 33.2022862,2.07023711 C33.1924747,2.07023711 33.1728516,2.06042556 33.16304,2.06042556 C33.1336054,2.03099091 33.0845476,2.02117936 33.0453014,2.03099091 C32.9962437,2.04080246 32.9569975,2.07023711 32.9177513,2.10948331 C32.9079397,2.11929486 32.8883166,2.11929486 32.8785051,2.12910642 L32.7902011,2.17816417 C32.8686935,1.96231006 32.9471859,1.74645595 33.0453014,1.5404134 C33.1139823,1.40305169 33.1041707,1.24606689 33.0158668,1.11851673 C32.9864321,1.07927053 32.9471859,1.04983588 32.9079397,1.03021278 C32.8392589,0.99096658 32.7607665,1.02040123 32.7215202,1.07927053 C32.5645354,1.33437084 32.4075506,1.58947115 32.2407543,1.85438301 C32.2015081,1.92306386 32.1132041,1.94268696 32.0445233,1.90344076 C32.0347117,1.89362921 32.0249002,1.88381766 32.0150886,1.87400611 C31.7599883,1.5796596 31.4362072,1.45210944 31.1222376,1.31474774 C30.8867603,1.21663224 30.1508941,0.814358675 29.8369245,0.716243172 C29.7976783,0.706431622 29.7682436,0.696620071 29.7289974,0.696620071 C29.6406935,0.696620071 29.6799397,0.775112474 29.9154169,0.98115503" id="Path"></path>
            <path d="M38.4416541,21.163514 C38.4514656,21.163514 38.4514656,21.163514 38.4612772,21.163514 C38.4809003,21.163514 38.4907118,21.1733255 38.5005234,21.1929486 C38.5201465,21.2321948 38.7556237,21.5952222 38.7654352,21.6148453 C38.9322316,21.8110763 39.1873319,21.9778727 39.6288517,22.1642921 C40.080183,22.3605231 41.6598426,22.537131 41.8364505,22.5567541 L41.846262,22.5567541 C41.8953198,22.5469426 41.9443775,22.537131 41.9836237,22.5273195 C42.1013623,22.4880733 42.2289125,22.4880733 42.3564626,22.5175079 C42.4055204,22.5273195 42.4545781,22.5175079 42.4840128,22.4880733 C42.5821283,22.3409 42.71949,22.2231614 42.8764748,22.1544806 C42.8960979,22.1250459 42.915721,22.0956113 42.9353441,22.0661766 C42.9647788,22.0073073 42.9844019,21.9680611 43.0236481,21.9680611 C43.0432712,21.9680611 43.0530827,21.9778727 43.0628943,21.9974958 C43.0825174,22.036742 43.0923289,22.0857997 43.0923289,22.1250459 C43.0923289,22.1544806 43.1021405,22.1839152 43.111952,22.2133499 C43.1708213,22.2918423 43.2198791,22.3899578 43.2395022,22.4880733 C43.2591253,22.5665657 43.2493137,22.6646812 43.1904444,22.733362 C43.1315751,22.7922313 43.111952,22.8805353 43.1511982,22.9590277 C43.1708213,23.0080855 43.200256,23.0473317 43.2395022,23.0767663 C43.3376177,23.1454472 43.4161101,23.2337511 43.4749794,23.3416782 C43.4847909,23.3613013 43.4946025,23.3809244 43.5142256,23.3907359 C43.7693259,23.5477207 45.0938852,24.3326447 45.7120128,24.5190642 C45.7120128,24.5190642 45.9180554,24.5877451 46.1044749,24.6466144 C46.2516481,24.6956721 46.51656,24.6858606 46.8992104,24.6269913 L46.9286451,24.6269913 C46.9580797,24.6171797 46.9875144,24.6269913 46.9973259,24.6466144 C47.0071375,24.6662375 46.9875144,24.7054837 46.9777028,24.7251068 L46.9678913,24.7349183 C46.7226025,24.8624685 46.4478791,24.9213378 46.1731557,24.9115262 L46.2908943,24.9703955 C46.3301405,24.9900186 46.3399521,25.0096417 46.3399521,25.0390764 C46.3301405,25.0783226 46.2810828,25.0783226 46.232025,25.0783226 C46.1044749,25.0783226 45.9769247,25.068511 45.8493746,25.0488879 L45.8886208,25.068511 C45.9474901,25.0881341 45.9671132,25.1175688 45.9573016,25.1470034 C45.9474901,25.1764381 45.8984323,25.1862496 45.7905052,25.1764381 L45.447101,25.1371919 C45.4569125,25.156815 45.4569125,25.1764381 45.447101,25.1862496 C45.4372894,25.2058727 45.4078548,25.2156843 45.3882317,25.2058727 C45.2410584,25.1960612 45.0938852,25.1470034 44.9761466,25.068511 C44.9761466,25.068511 44.9467119,25.0390764 44.9172773,25.0488879 C44.8682195,25.0783226 44.8093502,25.0783226 44.7602925,25.068511 C44.7112347,25.0488879 44.7014232,25.0586995 44.6916116,25.068511 C44.662177,25.0881341 44.5444384,25.1371919 44.4855691,25.068511 C44.4757575,25.0586995 44.465946,25.0390764 44.4561344,25.0292648 C44.4561344,25.0292648 44.4463229,25.0194533 44.4463229,25.0194533 L44.4168882,25.0292648 C44.3678305,25.068511 44.3089612,25.0783226 44.2500919,25.068511 C44.2108457,25.0488879 44.181411,25.0096417 44.1715994,24.960584 C44.1617879,24.960584 44.1617879,24.9703955 44.1519763,24.9703955 C44.1127301,24.9998302 44.0636724,24.9998302 44.0244262,24.9802071 C43.9949915,24.9507724 43.9753684,24.9213378 43.9655569,24.8820916 C43.9655569,24.87228 43.9655569,24.87228 43.9557453,24.8624685 C43.9459338,24.87228 43.9361222,24.87228 43.9263107,24.8820916 C43.8772529,24.9213378 43.8183836,24.9311493 43.7595143,24.9017147 C43.7398912,24.8820916 43.7300797,24.8526569 43.7202681,24.8232223 C43.6712104,24.8526569 43.6221526,24.87228 43.5829064,24.8428454 C43.5436602,24.8232223 43.5436602,24.764353 43.5436602,24.676049 C43.5436602,24.676049 43.5436602,24.6662375 43.5436602,24.6662375 C43.5240371,24.676049 43.3866754,24.7054837 43.3572408,24.7152952 C43.308183,24.7251068 43.2591253,24.7152952 43.2198791,24.6956721 C42.9844019,24.5877451 42.7587362,24.4601949 42.5526936,24.3032101 C42.4938243,24.2639639 42.434955,24.2247177 42.3662742,24.2050946 C42.3760857,24.3817025 42.3957088,24.479818 42.4055204,24.6073682 L42.4251435,24.7152952 C42.434955,24.764353 42.4447666,24.8330338 42.4545781,24.8919031 C42.4742012,24.9802071 42.4938243,25.068511 42.4938243,25.1470034 C42.5036359,25.1862496 42.4938243,25.2254958 42.4742012,25.2549305 C42.4545781,25.2745536 42.434955,25.2843651 42.4153319,25.2843651 C42.3662742,25.3039882 42.327028,25.3236113 42.2877818,25.3628575 C42.2289125,25.4119153 42.1602316,25.4707846 42.0915508,25.4511615 C42.0326815,25.4413499 41.9836237,25.4021037 41.9541891,25.353046 C41.9443775,25.353046 41.934566,25.3628575 41.9247544,25.3726691 C41.9051313,25.3922922 41.8855082,25.4021037 41.8560736,25.4021037 L41.8266389,25.4021037 C41.7873927,25.4119153 41.738335,25.4119153 41.6990888,25.4021037 C41.6696541,25.3922922 41.650031,25.3922922 41.6205964,25.3824806 C41.542104,25.3432344 41.4734231,25.3039882 41.4145538,25.2549305 L41.3753076,25.2254958 C41.3262499,25.1862496 41.257569,25.1764381 41.2771921,25.1175688 L41.3066268,25.0586995 C41.3262499,25.0292648 41.3262499,25.0194533 41.345873,24.9703955 C41.345873,24.9703955 41.4145538,24.8428454 41.2771921,24.9017147 C41.2281344,24.9213378 41.1790766,24.960584 41.149642,24.9703955 C40.9926572,25.0488879 40.9730341,25.0292648 40.8454839,25.0783226 C40.8160492,25.0881341 40.776803,25.1077572 40.7375568,25.1175688 C40.6590644,25.1470034 40.5609489,25.1175688 40.5118912,25.0488879 L40.4333988,24.9409609 C40.4039641,24.9017147 40.4137757,24.8428454 40.4530219,24.8035992 C40.4530219,24.8035992 40.4530219,24.8035992 40.4530219,24.8035992 L40.4235872,24.8035992 C40.384341,24.8134107 40.3450948,24.7937876 40.3156602,24.7741645 C40.1488638,24.6368028 39.991879,24.479818 39.8545173,24.3032101 L39.8447058,24.283587 C39.8250827,24.2737754 39.8250827,24.2541523 39.8152711,24.2345292 C39.8152711,24.2050946 39.8741404,24.2149061 39.8741404,24.2149061 L39.8937635,24.2149061 C39.9820675,24.2050946 39.991879,24.1854715 39.9526328,24.1756599 L39.7858365,24.1462253 C39.7662134,24.1462253 39.7171556,24.1364137 39.7171556,24.0971675 C39.7171556,24.0579213 39.7760249,24.0481098 39.8152711,24.0481098 C40.1586754,24.0382982 40.4824565,23.9303712 40.776803,23.7537633 C40.7375568,23.7439517 40.6983106,23.7145171 40.668876,23.6752709 C40.6296298,23.6360247 40.5707605,23.6164016 40.5118912,23.6262131 C40.4530219,23.6458362 40.3941526,23.6262131 40.3647179,23.5771554 C40.3549064,23.5575323 40.3352833,23.5477207 40.2666024,23.5477207 C40.18811,23.5477207 40.1194292,23.5084745 40.0899945,23.4496052 C40.0605599,23.410359 40.0115021,23.3809244 39.9624444,23.3809244 C39.9035751,23.3907359 39.8348942,23.3613013 39.795648,23.3122435 L39.7858365,23.2926204 C39.7662134,23.2631858 39.7465903,23.2435627 39.7171556,23.2435627 C39.6484748,23.2337511 39.6092286,23.1748818 39.5896055,23.0473317 C39.5896055,23.0080855 39.5405477,22.9982739 39.4326207,22.9982739 C39.3345052,22.9884624 39.2560127,22.9197815 39.2265781,22.821666 C39.2265781,22.8020429 39.2167665,22.7922313 39.2167665,22.7726082 C39.2167665,22.7431736 39.2167665,22.7431736 39.1873319,22.7431736 C39.0794048,22.733362 38.9911009,22.6646812 38.9420431,22.5665657 C38.9322316,22.5469426 38.92242,22.537131 38.92242,22.5175079 C38.9027969,22.4586386 38.8929854,22.4488271 38.8635507,22.429204 C38.7948699,22.3997693 38.7556237,22.3310885 38.7654352,22.2624076 C38.7654352,22.232973 38.7458121,22.2035383 38.7163775,22.1839152 C38.5888273,22.1054228 38.3925963,21.8503225 38.3141039,21.7423955 C38.2944808,21.7227724 38.2944808,21.7031493 38.3141039,21.6835262 C38.3239155,21.6639031 38.3631617,21.6737146 38.3729732,21.6835262 C38.3827848,21.6933377 38.4024079,21.6933377 38.422031,21.7031493 C38.3631617,21.5952222 38.2944808,21.4382374 38.2454231,21.3106873 C38.2356115,21.2910642 38.2454231,21.2616295 38.2650462,21.2420064 C38.2846693,21.2321948 38.3141039,21.2321948 38.333727,21.2518179 L38.4612772,21.3891797 L38.4024079,21.2420064 C38.3925963,21.2125717 38.4024079,21.1831371 38.422031,21.1733255" id="Path"></path>
        </g>
    </g>
</svg>